# File created by Blade
# Date/Time:  Thu Jan 22 19:01:23 2015
#---------------------------------------------------------
:version 1.10
:name HOM
:units
  mass 1.0
  length 1.000000
  angle deg
:documentation
     Acclaim Skeleton File
:root
   axis xyz
   order TX TY TZ RX RY RZ
   position 0.000000 0.000000 0.000000
   orientation 0 0 0
:bonedata
   begin
      id 1
      name RightUpLeg_dum
      direction -1.000000 0.000000 0.000000
      length 4.478084
      axis 0.0 0.0 0.0 xyz
   end
   begin
      id 2
      name LeftUpLeg_dum
      direction 1.000000 0.000000 0.000000
      length 4.478084
      axis 0.0 0.0 0.0 xyz
   end
   begin
      id 3
      name Spine_dum
      direction 0.000000 1.000000 0.000000
      length 6.068208
      axis 0.0 0.0 0.0 xyz
   end
   begin
      id 4
      name RightUpLeg
      direction 0.000000 -1.000000 0.000000
      length 16.405774
      axis 0.0 0.0 0.0 xyz
      dof rx ry rz
   end
   begin
      id 5
      name RightLeg
      direction 0.000000 -1.000000 0.000000
      length 14.644143
      axis 0.0 0.0 0.0 xyz
      dof rx ry rz
   end
   begin
      id 6
      name RightFoot
      direction 0.000000 -0.258819 0.965926
      length 5.806150
      axis 15.0 0.0 0.0 xyz
      dof rx ry rz
   end
   begin
      id 7
      name RightToeBase
      direction 0.000000 0.000000 1.000000
      length 2.952750
      axis 0.0 0.0 0.0 xyz
      dof rx ry rz
   end
   begin
      id 8
      name LeftUpLeg
      direction 0.000000 -1.000000 0.000000
      length 16.405774
      axis 0.0 0.0 0.0 xyz
      dof rx ry rz
   end
   begin
      id 9
      name LeftLeg
      direction 0.000000 -1.000000 0.000000
      length 14.644143
      axis 0.0 0.0 0.0 xyz
      dof rx ry rz
   end
   begin
      id 10
      name LeftFoot
      direction 0.000000 -0.258819 0.965926
      length 5.806150
      axis 15.0 0.0 0.0 xyz
      dof rx ry rz
   end
   begin
      id 11
      name LeftToeBase
      direction 0.000000 0.000000 1.000000
      length 2.952750
      axis 0.0 0.0 0.0 xyz
      dof rx ry rz
   end
   begin
      id 12
      name Spine
      direction 0.000000 1.000000 0.000000
      length 0.000000
      axis 0.0 0.0 0.0 xyz
      dof rx ry rz
   end
   begin
      id 13
      name Spine_dum1
      direction 0.000000 1.000000 0.000000
      length 10.013923
      axis 0.0 0.0 0.0 xyz
   end
   begin
      id 14
      name Spine_dum2
      direction 0.000000 1.000000 0.000000
      length 10.013923
      axis 0.0 0.0 0.0 xyz
   end
   begin
      id 15
      name Spine_dum3
      direction 0.000000 1.000000 0.000000
      length 15.777476
      axis 0.0 0.0 0.0 xyz
   end
   begin
      id 16
      name RightShoulder
      direction -1.000000 0.000000 0.000000
      length 7.190220
      axis 0.0 0.0 90.0 xyz
      dof rx ry rz
   end
   begin
      id 17
      name RightArm
      direction -1.000000 0.000000 0.000000
      length 10.177469
      axis 0.0 0.0 90.0 xyz
      dof rx ry rz
   end
   begin
      id 18
      name RightForeArm
      direction -1.000000 0.000000 0.000000
      length 8.392114
      axis 0.0 0.0 90.0 xyz
      dof ry rz rx
   end
   begin
      id 19
      name RightHand
      direction -1.000000 0.000000 0.000000
      length 0.000000
      axis 0.0 0.0 90.0 xyz
      dof rx ry rz
   end
   begin
      id 20
      name RightHand_dum1
      direction -1.000000 0.000000 0.000000
      length 3.937000
      axis 0.0 0.0 90.0 xyz
   end
   begin
      id 21
      name RightHand_dum2
      direction 0.000000 0.000000 0.000000
      length 0.000000
      axis 0.0 0.0 90.0 xyz
   end
   begin
      id 22
      name RightHandThumb1
      direction 0.000000 0.000000 1.000000
      length 3.937000
      axis 0.0 0.0 90.0 xyz
      dof rx rz ry
   end
   begin
      id 23
      name LeftShoulder
      direction 1.000000 0.000000 0.000000
      length 7.190220
      axis 0.0 0.0 -90.0 xyz
      dof rx ry rz
   end
   begin
      id 24
      name LeftArm
      direction 1.000000 0.000000 0.000000
      length 10.177469
      axis 0.0 0.0 -90.0 xyz
      dof rx ry rz
   end
   begin
      id 25
      name LeftForeArm
      direction 1.000000 0.000000 0.000000
      length 8.392114
      axis 0.0 0.0 -90.0 xyz
      dof ry rz rx
   end
   begin
      id 26
      name LeftHand
      direction 1.000000 0.000000 0.000000
      length 0.000000
      axis 0.0 0.0 -90.0 xyz
      dof rx ry rz
   end
   begin
      id 27
      name LeftHand_dum1
      direction 1.000000 0.000000 0.000000
      length 3.937000
      axis 0.0 0.0 -90.0 xyz
   end
   begin
      id 28
      name LeftHand_dum2
      direction 0.000000 0.000000 0.000000
      length 0.000000
      axis 0.0 0.0 -90.0 xyz
   end
   begin
      id 29
      name LeftHandThumb1
      direction 0.000000 0.000000 1.000000
      length 3.937000
      axis 0.0 0.0 -90.0 xyz
      dof rx rz ry
   end
   begin
      id 30
      name Head
      direction 0.000000 1.000000 0.000000
      length 4.527550
      axis 0.0 0.0 0.0 xyz
      dof rx ry rz
   end
:hierarchy
   begin
      root RightUpLeg_dum LeftUpLeg_dum Spine_dum
      RightUpLeg_dum RightUpLeg
      LeftUpLeg_dum LeftUpLeg
      Spine_dum Spine
      RightUpLeg RightLeg
      RightLeg RightFoot
      RightFoot RightToeBase
      LeftUpLeg LeftLeg
      LeftLeg LeftFoot
      LeftFoot LeftToeBase
      Spine Spine_dum1 Spine_dum2 Spine_dum3
      Spine_dum1 RightShoulder
      Spine_dum2 LeftShoulder
      Spine_dum3 Head
      RightShoulder RightArm
      RightArm RightForeArm
      RightForeArm RightHand
      RightHand RightHand_dum1 RightHand_dum2
      RightHand_dum2 RightHandThumb1
      LeftShoulder LeftArm
      LeftArm LeftForeArm
      LeftForeArm LeftHand
      LeftHand LeftHand_dum1 LeftHand_dum2
      LeftHand_dum2 LeftHandThumb1
   end

# File created by Blade
# Date/Time:  Thu Jan 22 19:01:15 2015
# Frame Rate: 120.000 fps
#------------------------------------------------------
:FULLY-SPECIFIED
:DEGREES
592
root -3.290828 32.943569 -8.044924 48.054741 0.880609 1.584220
RightUpLeg -55.591651 -4.399207 5.311520
RightLeg 0.337655 -0.000000 -0.000000
RightFoot 1.235006 -3.716604 -0.155225
RightToeBase 4.654388 -0.000000 -0.000000
LeftUpLeg -54.013666 3.948641 0.006073
LeftLeg -3.194728 -0.000000 0.000000
LeftFoot 4.195887 1.202976 -10.113277
LeftToeBase 8.823596 -0.000000 -0.000000
Spine 32.769286 -2.366379 -6.004206
RightShoulder -45.512944 -49.323327 0.671144
RightArm -2.519265 -24.877727 78.512228
RightForeArm -23.270650 -0.000000 5.953447
RightHand 4.619292 -0.000000 53.387524
RightHandThumb1 -24.326973 -0.000000 -32.862282
LeftShoulder -40.940905 37.644424 9.048936
LeftArm -25.487481 13.018870 -91.982482
LeftForeArm 34.888723 -0.000000 1.173086
LeftHand 1.555446 -0.000000 -49.472286
LeftHandThumb1 -26.253704 0.000000 33.147579
Head -1.644062 3.695530 -7.138221
593
root -3.286854 32.937151 -8.092570 48.302546 0.987553 1.582490
RightUpLeg -55.906501 -4.434755 5.394141
RightLeg 0.313193 -0.000000 -0.000000
RightFoot 1.315364 -3.727514 -0.186659
RightToeBase 4.686182 -0.000000 -0.000000
LeftUpLeg -54.350114 3.910526 0.005190
LeftLeg -3.236605 -0.000000 0.000000
LeftFoot 4.328368 1.155646 -10.042779
LeftToeBase 8.899316 -0.000000 -0.000000
Spine 33.058405 -2.501164 -5.919950
RightShoulder -45.574259 -49.429607 0.674185
RightArm -2.417975 -24.794378 78.427769
RightForeArm -23.224517 0.000000 5.865215
RightHand 4.539647 0.000000 53.098568
RightHandThumb1 -24.326973 -0.000000 -32.862282
LeftShoulder -41.044017 37.754924 8.868845
LeftArm -25.446387 13.007300 -91.885057
LeftForeArm 34.910632 -0.000000 1.157753
LeftHand 1.546392 -0.000000 -49.515564
LeftHandThumb1 -26.253704 0.000000 33.147579
Head -1.666216 3.739620 -7.283473
594
root -3.279514 32.929580 -8.136137 48.531707 0.966517 1.577074
RightUpLeg -56.213679 -4.387352 5.380659
RightLeg 0.305095 -0.000000 -0.000000
RightFoot 1.388776 -3.739414 -0.203613
RightToeBase 4.714776 -0.000000 -0.000000
LeftUpLeg -54.607848 3.918405 -0.026596
LeftLeg -3.338614 -0.000000 0.000000
LeftFoot 4.440816 1.158608 -10.101049
LeftToeBase 8.891161 -0.000000 -0.000000
Spine 33.350599 -2.490389 -5.941123
RightShoulder -45.659232 -49.480889 0.724442
RightArm -2.419014 -24.721756 78.344402
RightForeArm -23.352455 0.000000 5.872344
RightHand 4.554898 -0.000000 53.046813
RightHandThumb1 -24.326973 -0.000000 -32.862282
LeftShoulder -41.008006 37.702867 8.931957
LeftArm -25.575075 13.029892 -91.848841
LeftForeArm 34.871171 -0.000000 1.049778
LeftHand 1.556392 -0.000000 -49.447344
LeftHandThumb1 -26.253704 0.000000 33.147579
Head -1.693700 3.715963 -7.310809
595
root -3.274133 32.922727 -8.180688 48.762211 0.979873 1.574024
RightUpLeg -56.523522 -4.377365 5.416016
RightLeg 0.296482 -0.000000 -0.000000
RightFoot 1.472261 -3.723567 -0.203298
RightToeBase 4.666745 -0.000000 -0.000000
LeftUpLeg -54.883394 3.889130 -0.008571
LeftLeg -3.413677 -0.000000 0.000000
LeftFoot 4.546359 1.193234 -10.148724
LeftToeBase 8.881370 -0.000000 -0.000000
Spine 33.630754 -2.455833 -5.927859
RightShoulder -45.643577 -49.433755 0.647418
RightArm -2.557321 -24.778826 78.342807
RightForeArm -23.350384 0.000000 5.804293
RightHand 4.520080 -0.000000 53.058787
RightHandThumb1 -24.326973 -0.000000 -32.862282
LeftShoulder -40.986806 37.786385 8.923240
LeftArm -25.613494 13.029200 -91.790161
LeftForeArm 34.828923 -0.000000 1.118402
LeftHand 1.501906 -0.000000 -49.414187
LeftHandThumb1 -26.253704 0.000000 33.147579
Head -1.668353 3.748994 -7.309579
596
root -3.273933 32.916962 -8.227388 49.004430 1.021750 1.558970
RightUpLeg -56.843568 -4.359102 5.472255
RightLeg 0.290025 -0.000000 -0.000000
RightFoot 1.566137 -3.725519 -0.191774
RightToeBase 4.682636 -0.000000 -0.000000
LeftUpLeg -55.196647 3.864286 0.032535
LeftLeg -3.458158 -0.000000 0.000000
LeftFoot 4.654125 1.213383 -10.146913
LeftToeBase 8.941394 -0.000000 -0.000000
Spine 33.909677 -2.462043 -5.886104
RightShoulder -45.806103 -49.529500 0.764637
RightArm -2.469648 -24.776951 78.250392
RightForeArm -23.403311 -0.000000 5.779084
RightHand 4.578791 -0.000000 53.007359
RightHandThumb1 -24.326973 -0.000000 -32.862282
LeftShoulder -40.998980 37.802467 8.939595
LeftArm -25.639651 13.019309 -91.695409
LeftForeArm 34.845317 0.000000 1.046413
LeftHand 1.507516 -0.000000 -49.450436
LeftHandThumb1 -26.253704 0.000000 33.147579
Head -1.705170 3.680032 -7.327163
597
root -3.264121 32.910140 -8.267749 49.212864 1.011083 1.558543
RightUpLeg -57.109445 -4.299702 5.407053
RightLeg 0.262942 -0.000000 -0.000000
RightFoot 1.641658 -3.783671 -0.190075
RightToeBase 4.700282 -0.000000 -0.000000
LeftUpLeg -55.441611 3.829867 0.040219
LeftLeg -3.524156 -0.000000 0.000000
LeftFoot 4.730305 1.268184 -10.199790
LeftToeBase 8.949434 -0.000000 -0.000000
Spine 34.214699 -2.481246 -5.899820
RightShoulder -45.883242 -49.589041 0.787339
RightArm -2.417232 -24.625609 78.170163
RightForeArm -23.650980 -0.000000 5.741687
RightHand 4.671276 -0.000000 53.045407
RightHandThumb1 -24.326973 -0.000000 -32.862282
LeftShoulder -41.117828 37.947034 8.779920
LeftArm -25.511842 13.113515 -91.644335
LeftForeArm 34.792599 0.000000 0.985190
LeftHand 1.548991 -0.000000 -49.399408
LeftHandThumb1 -26.253704 0.000000 33.147579
Head -1.722020 3.707324 -7.359974
598
root -3.260495 32.904485 -8.308023 49.409201 1.038389 1.553379
RightUpLeg -57.345263 -4.279905 5.419201
RightLeg 0.196189 -0.000000 -0.000000
RightFoot 1.761255 -3.792590 -0.065808
RightToeBase 4.587870 -0.000000 -0.000000
LeftUpLeg -55.696015 3.791803 0.077759
LeftLeg -3.557143 -0.000000 0.000000
LeftFoot 4.810168 1.303466 -10.205060
LeftToeBase 8.936325 -0.000000 -0.000000
Spine 34.530756 -2.466339 -5.869726
RightShoulder -45.978698 -49.664992 0.893923
RightArm -2.379810 -24.542163 78.113313
RightForeArm -23.742312 -0.000000 5.684268
RightHand 4.645072 -0.000000 52.994577
RightHandThumb1 -24.326973 -0.000000 -32.862282
LeftShoulder -41.077391 37.975259 8.796095
LeftArm -25.563337 13.081543 -91.588128
LeftForeArm 34.842473 -0.000000 1.016653
LeftHand 1.493678 -0.000000 -49.420892
LeftHandThumb1 -26.253704 0.000000 33.147579
Head -1.716955 3.683192 -7.354946
599
root -3.255862 32.898736 -8.349329 49.612940 1.020150 1.547983
RightUpLeg -57.612702 -4.241736 5.416343
RightLeg 0.173653 -0.000000 -0.000000
RightFoot 1.828132 -3.796839 -0.144626
RightToeBase 4.699996 -0.000000 -0.000000
LeftUpLeg -55.964343 3.796565 0.051682
LeftLeg -3.574104 -0.000000 0.000000
LeftFoot 4.870696 1.322036 -10.214364
LeftToeBase 8.981763 -0.000000 -0.000000
Spine 34.808683 -2.374911 -5.870969
RightShoulder -46.114265 -49.752778 1.028703
RightArm -2.359864 -24.383060 78.082270
RightForeArm -23.859807 -0.000000 5.634249
RightHand 4.651466 -0.000000 52.971336
RightHandThumb1 -24.326973 -0.000000 -32.862282
LeftShoulder -40.956070 38.029129 8.902611
LeftArm -25.604118 13.048281 -91.566844
LeftForeArm 34.899825 -0.000000 0.998822
LeftHand 1.564404 -0.000000 -49.380935
LeftHandThumb1 -26.253704 0.000000 33.147579
Head -1.650247 3.597317 -7.298719
600
root -3.250182 32.893690 -8.391261 49.817247 1.002430 1.549258
RightUpLeg -57.882686 -4.207278 5.399598
RightLeg 0.151735 -0.000000 -0.000000
RightFoot 1.917937 -3.809426 -0.141319
RightToeBase 4.717358 -0.000000 -0.000000
LeftUpLeg -56.239244 3.782471 0.035207
LeftLeg -3.574656 -0.000000 0.000000
LeftFoot 4.922304 1.359273 -10.228906
LeftToeBase 9.009062 -0.000000 -0.000000
Spine 35.103727 -2.414168 -5.919525
RightShoulder -46.078111 -49.796257 0.974832
RightArm -2.360266 -24.351996 78.041417
RightForeArm -23.879451 -0.000000 5.587895
RightHand 4.636240 -0.000000 52.964648
RightHandThumb1 -24.326973 -0.000000 -32.862282
LeftShoulder -41.030934 38.124251 8.786231
LeftArm -25.593529 13.031512 -91.506083
LeftForeArm 34.908474 -0.000000 1.033480
LeftHand 1.560443 -0.000000 -49.336024
LeftHandThumb1 -26.253704 0.000000 33.147579
Head -1.652889 3.650507 -7.329674
601
root -3.244046 32.887896 -8.430719 50.010617 1.025199 1.566527
RightUpLeg -58.117699 -4.228460 5.428150
RightLeg 0.083725 -0.000000 -0.000000
RightFoot 1.993792 -3.796003 -0.115700
RightToeBase 4.741313 -0.000000 -0.000000
LeftUpLeg -56.504233 3.745453 0.014705
LeftLeg -3.576640 -0.000000 0.000000
LeftFoot 4.996275 1.367774 -10.219609
LeftToeBase 9.006713 -0.000000 -0.000000
Spine 35.381050 -2.320863 -5.875934
RightShoulder -46.267498 -49.898955 1.204552
RightArm -2.354671 -24.178679 77.999126
RightForeArm -24.001400 -0.000000 5.586436
RightHand 4.668918 -0.000000 52.963359
RightHandThumb1 -24.326973 -0.000000 -32.862282
LeftShoulder -40.914326 38.251890 8.880190
LeftArm -25.523418 13.064410 -91.513267
LeftForeArm 34.937226 -0.000000 0.997102
LeftHand 1.618924 -0.000000 -49.270507
LeftHandThumb1 -26.253704 0.000000 33.147579
Head -1.555560 3.573875 -7.215653
602
root -3.235534 32.882097 -8.468166 50.184062 1.006686 1.575703
RightUpLeg -58.324000 -4.201363 5.385618
RightLeg 0.019726 -0.000000 -0.000000
RightFoot 2.068417 -3.800736 -0.097428
RightToeBase 4.806966 -0.000000 -0.000000
LeftUpLeg -56.730135 3.744184 -0.045579
LeftLeg -3.604680 -0.000000 0.000000
LeftFoot 5.061017 1.367232 -10.201783
LeftToeBase 9.043456 -0.000000 -0.000000
Spine 35.690574 -2.266886 -5.873337
RightShoulder -46.368261 -49.926796 1.282081
RightArm -2.380674 -24.120215 77.962338
RightForeArm -24.098194 -0.000000 5.574977
RightHand 4.687576 0.000000 52.988891
RightHandThumb1 -24.326973 -0.000000 -32.862282
LeftShoulder -40.883239 38.358880 8.821324
LeftArm -25.456098 13.012504 -91.427396
LeftForeArm 35.007586 -0.000000 1.021455
LeftHand 1.635880 0.000000 -49.407174
LeftHandThumb1 -26.253704 0.000000 33.147579
Head -1.532391 3.520675 -7.212253
